# File created by Blade
# Date/Time:  Thu Jan 22 19:08:58 2015
# Frame Rate: 120.000 fps
#------------------------------------------------------
:FULLY-SPECIFIED
:DEGREES
2974
root -2.561778 33.020447 -0.953916 6.871708 -0.164175 2.677810
RightUpLeg -1.395503 -10.908622 -2.876017
RightLeg -0.005545 -0.000000 0.000000
RightFoot -11.776228 -5.087146 4.485193
RightToeBase 5.856679 -0.000000 -0.000000
LeftUpLeg -2.060206 4.758326 3.229310
LeftLeg 1.302383 -0.000000 -0.000000
LeftFoot -9.593601 -0.682556 -11.331576
LeftToeBase 8.294251 -0.000000 -0.000000
Spine -11.583092 -1.614389 -2.308165
RightShoulder 1.066617 16.756244 -34.486567
RightArm 79.587799 -13.615076 60.700703
RightForeArm -16.054193 -0.000000 13.479114
RightHand 7.969049 -0.000000 9.571577
RightHandThumb1 -24.326973 -0.000000 -32.862282
LeftShoulder -7.374781 -20.202359 36.996523
LeftArm 76.811374 20.058722 -63.704236
LeftForeArm 26.757796 -0.000000 9.807433
LeftHand -3.754623 -0.000000 -10.082788
LeftHandThumb1 -26.253704 0.000000 33.147579
Head 2.091153 5.525080 1.171992
2975
root -2.565262 33.020068 -0.961899 6.870860 -0.156789 2.666953
RightUpLeg -1.402938 -10.882404 -2.856111
RightLeg -0.016050 -0.000000 0.000000
RightFoot -11.765950 -5.114657 4.460571
RightToeBase 5.901503 -0.000000 -0.000000
LeftUpLeg -2.081806 4.763861 3.245195
LeftLeg 1.313944 -0.000000 -0.000000
LeftFoot -9.599637 -0.691524 -11.332551
LeftToeBase 8.307456 -0.000000 -0.000000
Spine -11.577119 -1.613049 -2.306236
RightShoulder 1.079012 16.727099 -34.466044
RightArm 79.592878 -13.610359 60.693975
RightForeArm -16.073188 0.000000 13.479204
RightHand 7.983980 0.000000 9.574149
RightHandThumb1 -24.326973 -0.000000 -32.862282
LeftShoulder -7.362278 -20.199820 37.006775
LeftArm 76.784039 20.051472 -63.687961
LeftForeArm 26.742038 -0.000000 9.818741
LeftHand -3.759833 0.000000 -10.086617
LeftHandThumb1 -26.253704 0.000000 33.147579
Head 2.091114 5.514238 1.186712
2976
root -2.566768 33.020298 -0.967911 6.868603 -0.142882 2.662682
RightUpLeg -1.403471 -10.877705 -2.846089
RightLeg -0.026914 -0.000000 0.000000
RightFoot -11.755914 -5.139799 4.440184
RightToeBase 5.881247 -0.000000 -0.000000
LeftUpLeg -2.099517 4.761442 3.253452
LeftLeg 1.328987 -0.000000 -0.000000
LeftFoot -9.589101 -0.703100 -11.311572
LeftToeBase 8.286239 -0.000000 -0.000000
Spine -11.572185 -1.607555 -2.308182
RightShoulder 1.072191 16.692639 -34.448620
RightArm 79.615864 -13.632533 60.568286
RightForeArm -16.000507 -0.000000 13.506403
RightHand 8.075681 0.000000 9.642292
RightHandThumb1 -24.326973 -0.000000 -32.862282
LeftShoulder -7.356531 -20.184865 37.014466
LeftArm 76.771355 20.047576 -63.681186
LeftForeArm 26.743740 -0.000000 9.832384
LeftHand -3.750351 -0.000000 -10.088239
LeftHandThumb1 -26.253704 0.000000 33.147579
Head 2.076378 5.482614 1.199166
2977
root -2.567646 33.021044 -0.974125 6.864742 -0.134369 2.662254
RightUpLeg -1.404069 -10.856811 -2.846663
RightLeg -0.033069 -0.000000 0.000000
RightFoot -11.742893 -5.152385 4.451575
RightToeBase 5.845858 -0.000000 -0.000000
LeftUpLeg -2.111076 4.757590 3.254255
LeftLeg 1.335355 -0.000000 -0.000000
LeftFoot -9.584832 -0.703819 -11.327407
LeftToeBase 8.282069 -0.000000 -0.000000
Spine -11.565068 -1.601581 -2.306632
RightShoulder 1.078321 16.680609 -34.444688
RightArm 79.607896 -13.641782 60.571870
RightForeArm -16.016766 -0.000000 13.499529
RightHand 8.077806 -0.000000 9.558175
RightHandThumb1 -24.326973 -0.000000 -32.862282
LeftShoulder -7.360124 -20.174380 37.017870
LeftArm 76.755374 20.049000 -63.664813
LeftForeArm 26.726621 -0.000000 9.839091
LeftHand -3.732671 0.000000 -10.087130
LeftHandThumb1 -26.253704 0.000000 33.147579
Head 2.064779 5.478847 1.193804
2978
root -2.568721 33.021127 -0.980320 6.856483 -0.116062 2.658588
RightUpLeg -1.398021 -10.868765 -2.839401
RightLeg -0.044708 -0.000000 0.000000
RightFoot -11.718746 -5.148627 4.460754
RightToeBase 5.759937 -0.000000 -0.000000
LeftUpLeg -2.125202 4.752739 3.262673
LeftLeg 1.349897 -0.000000 -0.000000
LeftFoot -9.586570 -0.718799 -11.316776
LeftToeBase 8.347134 -0.000000 -0.000000
Spine -11.554368 -1.604780 -2.301852
RightShoulder 1.110236 16.683678 -34.436110
RightArm 79.569003 -13.647112 60.572800
RightForeArm -15.964836 -0.000000 13.524371
RightHand 7.957894 -0.000000 9.466427
RightHandThumb1 -24.326973 -0.000000 -32.862282
LeftShoulder -7.351110 -20.149494 37.020811
LeftArm 76.747955 20.037024 -63.636449
LeftForeArm 26.672850 -0.000000 9.859286
LeftHand -3.815950 -0.000000 -9.997903
LeftHandThumb1 -26.253704 0.000000 33.147579
Head 2.052604 5.467710 1.196637
2979
root -2.566214 33.021722 -0.983802 6.840957 -0.099752 2.664056
RightUpLeg -1.378599 -10.903040 -2.852844
RightLeg -0.055630 -0.000000 0.000000
RightFoot -11.715070 -5.113990 4.458428
RightToeBase 5.798442 -0.000000 -0.000000
LeftUpLeg -2.115955 4.734819 3.250950
LeftLeg 1.340884 -0.000000 -0.000000
LeftFoot -9.572216 -0.698420 -11.295674
LeftToeBase 8.322021 -0.000000 -0.000000
Spine -11.545891 -1.608162 -2.292143
RightShoulder 1.122932 16.690126 -34.441922
RightArm 79.580475 -13.697267 60.317245
RightForeArm -15.720987 -0.000000 13.564873
RightHand 8.171392 -0.000000 9.618045
RightHandThumb1 -24.326973 -0.000000 -32.862282
LeftShoulder -7.349108 -20.109282 37.005742
LeftArm 76.765765 20.035588 -63.582414
LeftForeArm 26.668413 -0.000000 9.868739
LeftHand -3.826392 0.000000 -9.981269
LeftHandThumb1 -26.253704 0.000000 33.147579
Head 2.054586 5.476162 1.166138
2980
root -2.566761 33.021984 -0.989867 6.834567 -0.089250 2.661471
RightUpLeg -1.382507 -10.905661 -2.848806
RightLeg -0.052996 -0.000000 0.000000
RightFoot -11.708359 -5.114995 4.437163
RightToeBase 5.796250 -0.000000 -0.000000
LeftUpLeg -2.125858 4.745492 3.253994
LeftLeg 1.346850 -0.000000 -0.000000
LeftFoot -9.565581 -0.716668 -11.278850
LeftToeBase 8.324268 -0.000000 -0.000000
Spine -11.536331 -1.600207 -2.290439
RightShoulder 1.132383 16.650556 -34.428464
RightArm 79.591687 -13.685394 60.338246
RightForeArm -15.813755 -0.000000 13.567755
RightHand 8.187974 -0.000000 9.578562
RightHandThumb1 -24.326973 -0.000000 -32.862282
LeftShoulder -7.341883 -20.088383 37.010069
LeftArm 76.759256 20.028119 -63.581625
LeftForeArm 26.711951 0.000000 9.876993
LeftHand -3.804341 0.000000 -9.979184
LeftHandThumb1 -26.253704 0.000000 33.147579
Head 2.039813 5.459838 1.164755
2981
root -2.567672 33.022353 -0.995520 6.826809 -0.084961 2.658279
RightUpLeg -1.382331 -10.920164 -2.844461
RightLeg -0.060129 -0.000000 0.000000
RightFoot -11.668977 -5.088387 4.412356
RightToeBase 5.696638 -0.000000 -0.000000
LeftUpLeg -2.129126 4.749879 3.257760
LeftLeg 1.347943 -0.000000 -0.000000
LeftFoot -9.555856 -0.719687 -11.288988
LeftToeBase 8.293676 -0.000000 -0.000000
Spine -11.528871 -1.588174 -2.286553
RightShoulder 1.130171 16.576486 -34.429272
RightArm 79.627988 -13.673780 60.328763
RightForeArm -15.827779 -0.000000 13.621064
RightHand 8.179155 -0.000000 9.568831
RightHandThumb1 -24.326973 -0.000000 -32.862282
LeftShoulder -7.332137 -20.099981 37.012602
LeftArm 76.736480 20.037912 -63.542705
LeftForeArm 26.728848 -0.000000 9.879660
LeftHand -3.796794 -0.000000 -10.012248
LeftHandThumb1 -26.253704 0.000000 33.147579
Head 2.033736 5.458965 1.157204
2982
root -2.568900 33.022814 -1.001031 6.818747 -0.078879 2.653934
RightUpLeg -1.381681 -10.914070 -2.840198
RightLeg -0.058054 -0.000000 0.000000
RightFoot -11.675271 -5.097626 4.434127
RightToeBase 5.777729 -0.000000 -0.000000
LeftUpLeg -2.128663 4.751948 3.266192
LeftLeg 1.338040 -0.000000 -0.000000
LeftFoot -9.543776 -0.732185 -11.300141
LeftToeBase 8.318067 -0.000000 -0.000000
Spine -11.520432 -1.574108 -2.283660
RightShoulder 1.134639 16.558074 -34.421380
RightArm 79.630399 -13.684631 60.264217
RightForeArm -15.848580 0.000000 13.648812
RightHand 8.188982 0.000000 9.573911
RightHandThumb1 -24.326973 -0.000000 -32.862282
LeftShoulder -7.330375 -20.090905 37.015265
LeftArm 76.734263 20.046313 -63.492312
LeftForeArm 26.762510 -0.000000 9.894569
LeftHand -3.710396 -0.000000 -10.156328
LeftHandThumb1 -26.253704 0.000000 33.147579
Head 2.019784 5.455822 1.153222
2983
root -2.569672 33.022824 -1.006937 6.812716 -0.088443 2.649737
RightUpLeg -1.387739 -10.933014 -2.832764
RightLeg -0.060662 -0.000000 0.000000
RightFoot -11.646851 -5.054945 4.387667
RightToeBase 5.678371 -0.000000 -0.000000
LeftUpLeg -2.128450 4.793506 3.259462
LeftLeg 1.316360 -0.000000 -0.000000
LeftFoot -9.541618 -0.718375 -11.346236
LeftToeBase 8.421741 -0.000000 -0.000000
Spine -11.513865 -1.547736 -2.277923
RightShoulder 1.148643 16.541259 -34.422806
RightArm 79.628809 -13.687073 60.249806
RightForeArm -15.854740 -0.000000 13.662844
RightHand 8.205169 -0.000000 9.562889
RightHandThumb1 -24.326973 -0.000000 -32.862282
LeftShoulder -7.333808 -20.096230 37.027244
LeftArm 76.714211 20.055788 -63.479836
LeftForeArm 26.762687 0.000000 9.886353
LeftHand -3.711328 -0.000000 -10.155908
LeftHandThumb1 -26.253704 0.000000 33.147579
Head 2.005817 5.454182 1.136588
